<mxfile host="app.diagrams.net" modified="2023-06-26T18:09:41.980Z" agent="Mozilla/5.0 (Windows NT 10.0; Win64; x64; rv:109.0) Gecko/20100101 Firefox/113.0" etag="VfzW3TClwU7rMd3SiIlb" version="21.4.0" type="device">
  <diagram name="Page-1" id="xGddiXX9xQhbEhBkytxY">
    <mxGraphModel dx="1050" dy="530" grid="1" gridSize="10" guides="1" tooltips="1" connect="1" arrows="1" fold="1" page="1" pageScale="1" pageWidth="850" pageHeight="1100" math="0" shadow="0">
      <root>
        <mxCell id="0" />
        <mxCell id="1" parent="0" />
        <mxCell id="9V2G_Jkm-UDftRgc-XBs-2" value="Verify a timestamp" style="shape=umlFrame;whiteSpace=wrap;html=1;pointerEvents=0;width=130;height=30;fillColor=#f5f5f5;fontColor=#333333;strokeColor=#666666;" vertex="1" parent="1">
          <mxGeometry x="120" y="80" width="560" height="360" as="geometry" />
        </mxCell>
        <mxCell id="9V2G_Jkm-UDftRgc-XBs-5" value="&lt;div align=&quot;center&quot;&gt;Client node&lt;br&gt;&lt;/div&gt;" style="shape=umlLifeline;perimeter=lifelinePerimeter;whiteSpace=wrap;html=1;container=1;dropTarget=0;collapsible=0;recursiveResize=0;outlineConnect=0;portConstraint=eastwest;newEdgeStyle={&quot;edgeStyle&quot;:&quot;elbowEdgeStyle&quot;,&quot;elbow&quot;:&quot;vertical&quot;,&quot;curved&quot;:0,&quot;rounded&quot;:0};participant=umlActor;verticalAlign=bottom;labelPosition=center;verticalLabelPosition=top;align=center;" vertex="1" parent="1">
          <mxGeometry x="240" y="160" width="20" height="240" as="geometry" />
        </mxCell>
        <mxCell id="9V2G_Jkm-UDftRgc-XBs-7" value="" style="html=1;points=[];perimeter=orthogonalPerimeter;outlineConnect=0;targetShapes=umlLifeline;portConstraint=eastwest;newEdgeStyle={&quot;edgeStyle&quot;:&quot;elbowEdgeStyle&quot;,&quot;elbow&quot;:&quot;vertical&quot;,&quot;curved&quot;:0,&quot;rounded&quot;:0};fillColor=#f5f5f5;fontColor=#333333;strokeColor=#666666;" vertex="1" parent="9V2G_Jkm-UDftRgc-XBs-5">
          <mxGeometry x="5" y="60" width="10" height="140" as="geometry" />
        </mxCell>
        <mxCell id="9V2G_Jkm-UDftRgc-XBs-6" value="Contract" style="shape=umlLifeline;perimeter=lifelinePerimeter;whiteSpace=wrap;html=1;container=1;dropTarget=0;collapsible=0;recursiveResize=0;outlineConnect=0;portConstraint=eastwest;newEdgeStyle={&quot;edgeStyle&quot;:&quot;elbowEdgeStyle&quot;,&quot;elbow&quot;:&quot;vertical&quot;,&quot;curved&quot;:0,&quot;rounded&quot;:0};fillColor=#f5f5f5;fontColor=#333333;strokeColor=#666666;" vertex="1" parent="1">
          <mxGeometry x="460" y="140" width="100" height="260" as="geometry" />
        </mxCell>
        <mxCell id="9V2G_Jkm-UDftRgc-XBs-8" value="" style="html=1;points=[];perimeter=orthogonalPerimeter;outlineConnect=0;targetShapes=umlLifeline;portConstraint=eastwest;newEdgeStyle={&quot;edgeStyle&quot;:&quot;elbowEdgeStyle&quot;,&quot;elbow&quot;:&quot;vertical&quot;,&quot;curved&quot;:0,&quot;rounded&quot;:0};fillColor=#f5f5f5;fontColor=#333333;strokeColor=#666666;" vertex="1" parent="9V2G_Jkm-UDftRgc-XBs-6">
          <mxGeometry x="45" y="80" width="10" height="120" as="geometry" />
        </mxCell>
        <mxCell id="9V2G_Jkm-UDftRgc-XBs-11" value="verify the chain from &lt;br&gt;i-th position to 1st" style="html=1;align=left;spacingLeft=2;endArrow=block;rounded=0;edgeStyle=orthogonalEdgeStyle;curved=0;rounded=0;" edge="1" parent="9V2G_Jkm-UDftRgc-XBs-6">
          <mxGeometry relative="1" as="geometry">
            <mxPoint x="55" y="90" as="sourcePoint" />
            <Array as="points">
              <mxPoint x="85" y="120" />
            </Array>
            <mxPoint x="55" y="120" as="targetPoint" />
          </mxGeometry>
        </mxCell>
        <mxCell id="9V2G_Jkm-UDftRgc-XBs-9" value="verifyTimeStamp(i)" style="html=1;verticalAlign=bottom;endArrow=open;edgeStyle=elbowEdgeStyle;elbow=vertical;curved=0;rounded=0;endFill=0;" edge="1" parent="1" source="9V2G_Jkm-UDftRgc-XBs-5" target="9V2G_Jkm-UDftRgc-XBs-6">
          <mxGeometry width="80" relative="1" as="geometry">
            <mxPoint x="280" y="220" as="sourcePoint" />
            <mxPoint x="360" y="220" as="targetPoint" />
            <Array as="points">
              <mxPoint x="450" y="220" />
            </Array>
          </mxGeometry>
        </mxCell>
        <mxCell id="9V2G_Jkm-UDftRgc-XBs-12" value="verify HS&lt;sub&gt;0&lt;/sub&gt;" style="html=1;align=left;spacingLeft=2;endArrow=block;rounded=0;edgeStyle=orthogonalEdgeStyle;curved=0;rounded=0;" edge="1" parent="1">
          <mxGeometry relative="1" as="geometry">
            <mxPoint x="515" y="280" as="sourcePoint" />
            <Array as="points">
              <mxPoint x="545" y="310" />
            </Array>
            <mxPoint x="515" y="310" as="targetPoint" />
          </mxGeometry>
        </mxCell>
        <mxCell id="9V2G_Jkm-UDftRgc-XBs-13" value="return true/false" style="html=1;verticalAlign=bottom;endArrow=open;dashed=1;endSize=8;edgeStyle=elbowEdgeStyle;elbow=vertical;curved=0;rounded=0;" edge="1" parent="1">
          <mxGeometry relative="1" as="geometry">
            <mxPoint x="504.5" y="340" as="sourcePoint" />
            <mxPoint x="254" y="340" as="targetPoint" />
            <Array as="points">
              <mxPoint x="344.5" y="340" />
              <mxPoint x="424.5" y="340" />
            </Array>
          </mxGeometry>
        </mxCell>
      </root>
    </mxGraphModel>
  </diagram>
</mxfile>
